<mxfile host="app.diagrams.net" modified="2021-04-22T04:38:22.871Z" agent="5.0 (Windows NT 10.0; WOW64) AppleWebKit/537.36 (KHTML, like Gecko) Chrome/89.0.4389.90 Safari/537.36" etag="nBzFHso2UKv_V2R6aD3E" version="14.6.1" type="github">
  <diagram id="C5RBs43oDa-KdzZeNtuy" name="Page-1">
    <mxGraphModel dx="1038" dy="580" grid="1" gridSize="10" guides="1" tooltips="1" connect="1" arrows="1" fold="1" page="1" pageScale="1" pageWidth="827" pageHeight="1169" math="0" shadow="0">
      <root>
        <mxCell id="WIyWlLk6GJQsqaUBKTNV-0" />
        <mxCell id="WIyWlLk6GJQsqaUBKTNV-1" parent="WIyWlLk6GJQsqaUBKTNV-0" />
        <mxCell id="Yjb89BRgJoywNINF-x6U-2" value="" style="edgeStyle=orthogonalEdgeStyle;rounded=0;orthogonalLoop=1;jettySize=auto;html=1;" edge="1" parent="WIyWlLk6GJQsqaUBKTNV-1" source="Yjb89BRgJoywNINF-x6U-0" target="Yjb89BRgJoywNINF-x6U-1">
          <mxGeometry relative="1" as="geometry" />
        </mxCell>
        <mxCell id="Yjb89BRgJoywNINF-x6U-0" value="读取配置的sql&lt;br&gt;" style="rounded=0;whiteSpace=wrap;html=1;" vertex="1" parent="WIyWlLk6GJQsqaUBKTNV-1">
          <mxGeometry x="315" y="120" width="120" height="60" as="geometry" />
        </mxCell>
        <mxCell id="Yjb89BRgJoywNINF-x6U-4" value="" style="edgeStyle=orthogonalEdgeStyle;rounded=0;orthogonalLoop=1;jettySize=auto;html=1;entryX=0.5;entryY=0;entryDx=0;entryDy=0;" edge="1" parent="WIyWlLk6GJQsqaUBKTNV-1" source="Yjb89BRgJoywNINF-x6U-1" target="Yjb89BRgJoywNINF-x6U-12">
          <mxGeometry relative="1" as="geometry">
            <mxPoint x="375" y="378" as="targetPoint" />
          </mxGeometry>
        </mxCell>
        <mxCell id="Yjb89BRgJoywNINF-x6U-1" value="sql解析+参数注入" style="rounded=0;whiteSpace=wrap;html=1;" vertex="1" parent="WIyWlLk6GJQsqaUBKTNV-1">
          <mxGeometry x="315" y="220" width="120" height="60" as="geometry" />
        </mxCell>
        <mxCell id="Yjb89BRgJoywNINF-x6U-6" value="" style="edgeStyle=orthogonalEdgeStyle;rounded=0;orthogonalLoop=1;jettySize=auto;html=1;" edge="1" parent="WIyWlLk6GJQsqaUBKTNV-1" source="Yjb89BRgJoywNINF-x6U-12" target="Yjb89BRgJoywNINF-x6U-5">
          <mxGeometry relative="1" as="geometry">
            <mxPoint x="375" y="448" as="sourcePoint" />
          </mxGeometry>
        </mxCell>
        <mxCell id="Yjb89BRgJoywNINF-x6U-26" value="" style="edgeStyle=orthogonalEdgeStyle;rounded=1;orthogonalLoop=1;jettySize=auto;html=1;shadow=0;fontSize=13;startArrow=none;startFill=0;" edge="1" parent="WIyWlLk6GJQsqaUBKTNV-1" source="Yjb89BRgJoywNINF-x6U-5" target="Yjb89BRgJoywNINF-x6U-25">
          <mxGeometry relative="1" as="geometry" />
        </mxCell>
        <mxCell id="Yjb89BRgJoywNINF-x6U-5" value="结果列&lt;br&gt;顺序接收组装" style="rounded=0;whiteSpace=wrap;html=1;" vertex="1" parent="WIyWlLk6GJQsqaUBKTNV-1">
          <mxGeometry x="315" y="420" width="120" height="60" as="geometry" />
        </mxCell>
        <mxCell id="Yjb89BRgJoywNINF-x6U-13" value="" style="edgeStyle=orthogonalEdgeStyle;rounded=0;orthogonalLoop=1;jettySize=auto;html=1;startArrow=none;startFill=0;strokeColor=none;" edge="1" parent="WIyWlLk6GJQsqaUBKTNV-1" source="Yjb89BRgJoywNINF-x6U-8" target="Yjb89BRgJoywNINF-x6U-0">
          <mxGeometry relative="1" as="geometry" />
        </mxCell>
        <mxCell id="Yjb89BRgJoywNINF-x6U-8" value="1.列别名与持久化表中的数据应保持一致&lt;br&gt;&lt;br&gt;2.场景参数列可直接写成子查询列的形式" style="shape=partialRectangle;whiteSpace=wrap;html=1;top=0;bottom=0;fillColor=none;align=left;verticalAlign=top;fontSize=13;" vertex="1" parent="WIyWlLk6GJQsqaUBKTNV-1">
          <mxGeometry x="460" y="100" width="130" height="110" as="geometry" />
        </mxCell>
        <mxCell id="Yjb89BRgJoywNINF-x6U-12" value="&lt;span&gt;connection动态执行&lt;/span&gt;" style="shape=datastore;whiteSpace=wrap;html=1;" vertex="1" parent="WIyWlLk6GJQsqaUBKTNV-1">
          <mxGeometry x="310" y="310" width="130" height="70" as="geometry" />
        </mxCell>
        <mxCell id="Yjb89BRgJoywNINF-x6U-18" value="" style="ellipse;html=1;shape=startState;fillColor=#000000;strokeColor=#ff0000;" vertex="1" parent="WIyWlLk6GJQsqaUBKTNV-1">
          <mxGeometry x="200" y="135" width="30" height="30" as="geometry" />
        </mxCell>
        <mxCell id="Yjb89BRgJoywNINF-x6U-19" value="" style="edgeStyle=orthogonalEdgeStyle;html=1;verticalAlign=bottom;endArrow=open;endSize=8;strokeColor=#ff0000;shadow=0;entryX=0;entryY=0.5;entryDx=0;entryDy=0;" edge="1" source="Yjb89BRgJoywNINF-x6U-18" parent="WIyWlLk6GJQsqaUBKTNV-1" target="Yjb89BRgJoywNINF-x6U-0">
          <mxGeometry relative="1" as="geometry">
            <mxPoint x="155" y="220" as="targetPoint" />
          </mxGeometry>
        </mxCell>
        <mxCell id="Yjb89BRgJoywNINF-x6U-24" value="" style="strokeWidth=2;html=1;shape=mxgraph.flowchart.annotation_2;align=left;labelPosition=right;pointerEvents=1;" vertex="1" parent="WIyWlLk6GJQsqaUBKTNV-1">
          <mxGeometry x="435" y="100" width="50" height="110" as="geometry" />
        </mxCell>
        <mxCell id="Yjb89BRgJoywNINF-x6U-29" style="edgeStyle=orthogonalEdgeStyle;rounded=1;orthogonalLoop=1;jettySize=auto;html=1;shadow=0;fontSize=13;startArrow=none;startFill=0;" edge="1" parent="WIyWlLk6GJQsqaUBKTNV-1" source="Yjb89BRgJoywNINF-x6U-25" target="Yjb89BRgJoywNINF-x6U-28">
          <mxGeometry relative="1" as="geometry" />
        </mxCell>
        <mxCell id="Yjb89BRgJoywNINF-x6U-25" value="动态sql批量&lt;br&gt;插入存储库" style="whiteSpace=wrap;html=1;rounded=0;" vertex="1" parent="WIyWlLk6GJQsqaUBKTNV-1">
          <mxGeometry x="315" y="520" width="120" height="60" as="geometry" />
        </mxCell>
        <mxCell id="Yjb89BRgJoywNINF-x6U-28" value="" style="ellipse;html=1;shape=endState;fillColor=#000000;strokeColor=#ff0000;fontSize=13;align=left;" vertex="1" parent="WIyWlLk6GJQsqaUBKTNV-1">
          <mxGeometry x="360" y="611" width="30" height="30" as="geometry" />
        </mxCell>
      </root>
    </mxGraphModel>
  </diagram>
</mxfile>
